<svg width="40px" height="40px" fill="#000000" version="1.1" viewBox="0 0 100 100" xmlns="http://www.w3.org/2000/svg"><title>Icon</title><rect width="100" height="100" ry="0" fill="#40b6de" stop-color="#000000"/><path d="m38.076 36.026-1.5642-1.7128a16.494 16.494 0 0 0 1.963-1.4469 2.6748 2.6748 0 0 0 0.92285-1.5642 1.9865 1.9865 0 0 0-0.22681-1.1888 2.0882 2.0882 0 0 0-0.3363-0.524l2.4558-1.4859 13.233 12.6-3.2613 2.3932-9.3855-9.4794zm15.9 0.24245c-0.53182-1.1654-0.54746-2.7295-0.054748-4.6926a16.971 16.971 0 0 0 0.5944-3.23 2.6435 2.6435 0 0 0-1.048-2.0804 3.6211 3.6211 0 0 0-1.8145-0.7821 2.8468 2.8468 0 0 0-1.9005 0.41451c-0.83684 0.50836-1.134 1.095-0.88377 1.7597a4.7786 4.7786 0 0 0 1.2357 1.5642l-2.7999 1.7754a6.64 6.64 0 0 1-1.8614-2.7529c-0.42233-1.5251 0.31284-2.8312 2.1821-3.9104a7.8757 7.8757 0 0 1 4.4501-1.1731 7.1875 7.1875 0 0 1 4.1686 1.5642 4.3875 4.3875 0 0 1 1.7597 2.5965 6.9293 6.9293 0 0 1-0.17206 2.7138l-0.2972 1.3999a17.144 17.144 0 0 0-0.34412 1.9083 2.7921 2.7921 0 0 0 0.13295 1.1497l6.0769-4.2859 2.6592 2.0569-9.854 7.2344a9.057 9.057 0 0 1-2.229-3.23zm29.43 11.645-6.7182-16.424a1.5642 1.5642 0 0 0-0.50836-0.66478l-17.902-13.413a1.5642 1.5642 0 0 0-1.1731-0.25809l-24.628 3.6915a1.5642 1.5642 0 0 0-0.92285 0.50054l-7.469 8.2042a1.6815 1.6815 0 0 0-0.2972 0.47708l-8.1963 20.897a1.5642 1.5642 0 0 0 0 1.0636l2.6122 7.821a1.705 1.705 0 0 0 0.31284 0.53965l16.424 18.653a1.5642 1.5642 0 0 0 0.36759 0.30501l5.592 3.3552a1.5642 1.5642 0 0 0 0.7821 0.22681 1.8066 1.8066 0 0 0 0.28937 0l20.147-3.7306a1.8926 1.8926 0 0 0 0.44579-0.15642l12.67-6.726a1.6111 1.6111 0 0 0 0.7821-0.88377l7.4299-22.392a1.5642 1.5642 0 0 0-0.039107-1.0871zm-10.05-15.282-18.402 15.024-24.307-9.33 3.3317-14.539 22.955-3.5038zm-46.753-1.1888 5.373-5.9048-2.9954 13.021-8.6969 17.698-1.5642-4.7395zm-5.5606 27.092-0.08603-0.14859 9.1585-18.551 24.284 9.2447 3.5507 21.992-20.725 5.7797-0.14078-0.08603zm40.255 17.581-19.333 3.6055-2.8937-1.7362 19.904-5.545 11.419-1.1106zm12.06-6.6712-13.843 1.3843-3.5742-22 18.348-14.946 6.0065 14.68z" fill="#303030"/></svg>
