<svg height='300px' width='300px'  fill="#000000" xmlns="http://www.w3.org/2000/svg" xmlns:xlink="http://www.w3.org/1999/xlink" version="1.1" x="0px" y="0px" viewBox="0 0 100 100" style="enable-background:new 0 0 100 100;" xml:space="preserve"><g><path d="M27.05688,100c-0.02851,0-0.05702,0-0.08651-0.00197c-0.92897-0.04718-1.64265-0.83754-1.59546-1.76749   c0.28311-5.55611,0.03637-11.58408-0.73433-17.92466c-3.13293-4.43349-4.51803-15.06796-4.23295-32.46571   c0.25264-6.09383-0.56033-13.23558-2.35044-20.69485c-0.97812-4.13268-0.36471-7.81414,1.5994-9.61408   c1.0027-0.91914,2.25901-1.22093,3.45439-0.82575c0.985,0.32637,2.74955,1.44604,3.48682,5.27693   c0.53969,2.85867,1.44998,7.05426,2.94026,12.5101c0.31064-5.57086,0.08552-12.51797-0.67731-20.7676   c-0.34406-3.89577,0.869-7.46025,3.0189-8.87582c1.06659-0.70189,2.27474-0.77955,3.31774-0.21922   c1.84909,0.9968,2.7869,3.73553,2.7869,8.14051c-0.0344,3.93116,0.37159,8.84437,1.31628,15.60371   c0.37454-4.3224,0.66552-9.85591,0.73826-16.53465c0.07176-5.87658,1.5699-10.02597,4.11007-11.38649   c1.22683-0.65765,2.60012-0.59572,3.7719,0.16318c2.37993,1.54238,3.57038,5.70357,3.18405,11.13189l-0.07471,0.97026   c-0.42172,5.47256-0.92012,11.93208-1.10886,19.56141c1.03612-3.50648,2.23837-8.51505,3.49763-15.63615   c0.75694-4.36959,3.5232-10.77505,7.07589-10.54502c3.34429,0.19366,3.63919,5.47157,3.7375,7.20565   c0.20644,4.62518-1.13836,13.65042-3.69031,24.78133c-0.02163,0.09437-0.05309,0.18776-0.09044,0.27722   c-2.65813,6.3042-3.23615,11.59981-1.72228,15.74822c0.89849,1.12164,1.56303,1.43818,1.94444,1.51879   c0.28508-0.00491,0.6724-0.30179,1.07741-0.8228c0.86507-2.18037,2.44775-4.40105,4.7048-6.60403   c4.11498-4.06387,9.09111-5.97292,12.632-4.85914c1.74587,0.54657,2.92355,1.80977,3.23222,3.4652   c0.54066,2.90388-1.64757,6.48312-6.1656,10.08004c-3.16144,2.47823-6.30912,7.65096-10.06431,14.66   c-6.00831,9.77727-15.30389,14.3995-27.64589,13.78215c-0.92897-0.04522-1.6456-0.83362-1.60038-1.76357   c0.04522-0.92799,0.84246-1.67902,1.76357-1.59842c11.17809,0.52495,19.22522-3.41309,24.56506-12.09722   c4.01865-7.50646,7.26856-12.78339,10.89596-15.62534c3.99112-3.17717,5.157-5.6613,4.94073-6.8203   c-0.03146-0.1681-0.11404-0.61538-0.92603-0.869c-1.89136-0.59375-5.5974,0.42369-9.26805,4.04814   c-1.96017,1.91298-3.34035,3.85153-4.00095,5.61411c-0.05308,0.13959-0.12386,0.2723-0.21037,0.39322   c-1.12656,1.56106-2.43203,2.36223-3.88299,2.38288c-0.01966,0.00098-0.03932,0.00098-0.05702,0.00098   c-1.64167,0-3.19683-0.99188-4.75592-3.02972c-0.09634-0.12583-0.17498-0.26542-0.232-0.41386   c-1.9356-4.99185-1.39198-11.16924,1.61611-18.36113c3.50157-15.30389,3.66869-21.6828,3.57825-23.71768   c-0.13566-2.39566-0.49742-3.44849-0.70582-3.86923c-0.98303,0.7648-2.78789,3.91641-3.42883,7.6195   c-2.23149,12.6261-4.79131,21.38789-7.2086,24.67713c-0.42958,0.58589-1.18652,0.83067-1.87366,0.60555   c-0.69009-0.22315-1.15998-0.86212-1.16686-1.58662c-0.10912-11.65585,0.60948-20.97404,1.18652-28.46181l0.07373-0.95846   c0.34898-4.8965-0.80019-7.50351-1.65739-8.05892c-0.15335-0.0983-0.21627-0.09535-0.34996-0.02064   c-0.7766,0.41582-2.26393,2.71907-2.33471,8.45705c-0.15728,14.64722-1.39689,24.82163-2.48216,28.07646   c-0.24478,0.73236-0.95354,1.217-1.72719,1.14523c-0.7707-0.05898-1.40083-0.63504-1.53059-1.39689   c-2.18725-12.92691-3.09951-20.98583-3.04839-26.94695c0-3.29022-0.60948-4.69497-0.92602-5.07344   c-0.56721,0.3942-1.77143,2.39959-1.47652,5.73896c1.2111,13.08911,1.08429,23.07478-0.3765,29.67389   c-0.16515,0.74514-0.811,1.28679-1.57286,1.31825c-0.7825,0.01376-1.45194-0.45318-1.67804-1.18259   c-2.95009-9.48727-4.5082-16.44814-5.29659-20.61719c-0.3942-2.05061-1.08724-2.66894-1.23764-2.71121   c-0.47874,0.13566-1.69574,2.33569-0.71958,6.46247c1.88743,7.86329,2.70826,15.12399,2.43989,21.5727   c-0.34308,21.00058,1.87465,28.2711,3.79648,30.66381c0.19562,0.24379,0.31949,0.53477,0.35782,0.84541   c0.83755,6.69643,1.10985,13.07436,0.81002,18.95684C28.69167,99.30205,27.94751,100,27.05688,100z"></path><path d="M56.3877,100c-0.84148,0-1.56696-0.62717-1.66919-1.48438c-1.04792-8.77261-0.36766-15.88978,2.01915-21.15491   c0.38142-0.84541,1.37625-1.22289,2.22952-0.83754c0.84541,0.38338,1.22093,1.38214,0.83754,2.22952   c-2.12925,4.69497-2.71711,11.21053-1.7439,19.36578c0.1101,0.92209-0.54853,1.75964-1.47258,1.86974   C56.52139,99.99607,56.45454,100,56.3877,100z"></path></g></svg>