<svg height='40px' width='40px' fill="#000000" xmlns="http://www.w3.org/2000/svg" xmlns:xlink="http://www.w3.org/1999/xlink" version="1.1" x="0px" y="0px" viewBox="0 0 100 100" enable-background="new 0 0 100 100" xml:space="preserve"><g><g><path d="M27.076,2.027c1-0.827,2.363-1.195,3.639-0.954c5.964,1.186,11.929,2.373,17.89,3.57    c1.433,0.341,2.912,0.1,4.366,0.145c7.523-0.062,15.043-0.155,22.564-0.215c2.225-0.048,4.266,1.828,4.424,4.043    c0.011,0.748,0.046,1.497,0.043,2.245c1.474,0.432,3.024,0.567,4.502,0.99c2.062,0.666,3.375,2.978,2.917,5.092    c-2.293,11.468-4.576,22.938-6.872,34.406c-0.105,0.483-0.004,0.976,0.051,1.46c1.271,11.175,2.545,22.35,3.814,33.525    c0.082,0.974,0.338,1.961,0.12,2.936c-0.329,1.799-1.876,3.295-3.692,3.545c-2.922,0.359-5.854,0.642-8.773,1.024    c-0.48,2.157-2.713,3.709-4.904,3.391c-3.029-0.56-6.041-1.233-9.072-1.771c-1.639,0.074-3.264,0.354-4.897,0.509    c-8.836,1.003-17.672,2.018-26.51,3.013c-2.103,0.213-4.2-1.298-4.676-3.353c-0.225-1.113-0.26-2.257-0.437-3.377    c-1.164-0.174-2.257-0.779-2.975-1.718c-0.715-0.878-0.99-2.036-0.938-3.152c-1.371-0.328-2.766-0.549-4.141-0.855    c-1.58-0.372-2.88-1.695-3.251-3.271c-0.181-0.734-0.152-1.504,0.014-2.237c2.119-10.521,4.194-21.051,6.31-31.571    c0.055-0.263,0.06-0.533,0.033-0.798c-1.199-10.506-2.397-21.014-3.588-31.521c-0.223-2.275,1.577-4.521,3.857-4.757    c0.101-1.198-0.127-2.41,0.07-3.602c0.274-1.632,1.55-3.041,3.143-3.484c0.806-0.262,1.66-0.147,2.492-0.187    c0.944-0.055,1.89-0.002,2.835-0.033C25.625,3.907,26.138,2.768,27.076,2.027z M29.195,3.456    c-0.768,0.272-1.314,0.993-1.421,1.793c-5.08,25.486-10.176,50.97-15.26,76.457c-0.191,0.807,0.137,1.696,0.796,2.193    c0.619,0.48,1.442,0.487,2.176,0.66c16.967,3.392,33.937,6.769,50.904,10.164c0.617,0.115,1.259,0.311,1.886,0.142    c0.77-0.216,1.413-0.877,1.553-1.673c5.04-25.212,10.065-50.426,15.1-75.637c0.098-0.562,0.283-1.118,0.238-1.694    c-0.075-0.928-0.839-1.728-1.743-1.902C66.018,10.482,48.607,7.015,31.201,3.534C30.543,3.416,29.846,3.182,29.195,3.456z     M60.783,7.113c1.823,0.296,3.627,0.714,5.443,1.059c3.811,0.76,7.623,1.527,11.438,2.273c-0.034-0.867,0.165-1.837-0.372-2.596    c-0.459-0.717-1.348-1.059-2.178-0.946c-4.674,0.032-9.346,0.081-14.018,0.109C60.987,7.028,60.883,7.062,60.783,7.113z     M19.218,9.609c0.037,7.477,0.159,14.95,0.205,22.429c-0.004,0.942-0.028,1.889,0.107,2.824    c1.772-9.157,3.663-18.306,5.453-27.465c-1.256,0.019-2.513-0.037-3.768,0.034C20.12,7.484,19.164,8.506,19.218,9.609z     M15.543,15.896c-0.272,0.545-0.178,1.171-0.123,1.753c0.578,4.89,1.094,9.787,1.692,14.673c0.019,0.224-0.002,0.45,0.009,0.676    c0.091-0.205,0.02-0.45,0.034-0.668c-0.09-1.137,0.022-2.279-0.083-3.415c-0.033-4.733-0.059-9.465-0.121-14.198    C16.339,14.883,15.806,15.315,15.543,15.896z M73.047,88.845c-0.044,0.204-0.078,0.414-0.053,0.626    c0.754,0.007,1.506-0.057,2.26-0.042c0.684-0.003,1.418,0.075,2.037-0.273c0.746-0.376,1.197-1.226,1.143-2.053    c-0.041-4.493-0.108-8.986-0.116-13.482c-0.078-1.464,0.032-2.933-0.081-4.396c0.002-2.029-0.022-4.061-0.045-6.09    C76.461,71.695,74.777,80.278,73.047,88.845z M80.641,74.892c0.016,4.121,0.059,8.241,0.094,12.362    c0.035,1.295-0.588,2.522-1.516,3.396c0.677-0.061,1.404-0.049,2.012-0.399c0.696-0.396,1.131-1.215,1.063-2.015    c-0.564-5.055-1.159-10.109-1.718-15.164C80.506,73.678,80.622,74.285,80.641,74.892z M20.029,87.821    c-0.122,1.07,0.92,2.11,1.99,2.117c2.792,0.008,5.582-0.066,8.374-0.043C26.942,89.188,23.482,88.518,20.029,87.821z     M29.273,92.212c-1.763-0.022-3.526,0.049-5.288,0.017c-0.114,0.215-0.003,0.462,0.006,0.69c0.107,0.725,0.126,1.463,0.286,2.18    c0.257,0.984,1.278,1.686,2.292,1.562c7.931-0.881,15.854-1.831,23.788-2.684c-0.001-0.03-0.003-0.09-0.004-0.119    c-2.826-0.525-5.637-1.126-8.458-1.671c-0.741-0.201-1.507-0.065-2.263-0.089c-1.94-0.015-3.879,0.047-5.818,0.031    C32.3,92.206,30.783,92.098,29.273,92.212z"></path></g><g><path d="M45.021,66.229c-0.09-2.22-0.443-4.362-1.061-6.428c-0.618-2.066-1.967-5.359-4.049-9.883    c-1.526-3.319-2.454-5.415-2.784-6.29c-0.544-1.425-0.884-2.698-1.02-3.818c-0.136-1.12-0.086-2.214,0.149-3.281    c0.434-1.975,1.456-3.484,3.065-4.528c1.61-1.044,3.384-1.353,5.322-0.927c1.956,0.431,3.502,1.498,4.637,3.202    c0.858,1.27,1.4,3.002,1.626,5.196c1.028-1.88,2.192-3.228,3.49-4.043c1.789-1.098,3.653-1.434,5.592-1.007    c1.92,0.422,3.401,1.442,4.444,3.061c1.042,1.619,1.361,3.344,0.959,5.175c-0.352,1.601-1.109,3.182-2.273,4.744    c-1.164,1.562-3.176,3.501-6.035,5.818c-3.727,3.039-6.517,5.596-8.37,7.667C47.253,62.524,46.023,64.305,45.021,66.229    L45.021,66.229z"></path><path d="M33.736,20.906c-0.036-0.888-0.177-1.745-0.424-2.571c-0.248-0.826-0.787-2.144-1.62-3.953    c-0.611-1.328-0.981-2.167-1.114-2.517c-0.217-0.569-0.354-1.078-0.408-1.527c-0.055-0.448-0.035-0.885,0.06-1.312    c0.174-0.79,0.583-1.394,1.226-1.811c0.644-0.418,1.354-0.542,2.128-0.371c0.783,0.172,1.401,0.6,1.855,1.281    c0.343,0.508,0.56,1.201,0.65,2.079c0.412-0.752,0.877-1.291,1.396-1.617c0.716-0.439,1.461-0.573,2.237-0.403    c0.768,0.169,1.361,0.577,1.777,1.224c0.417,0.647,0.545,1.337,0.384,2.07c-0.142,0.641-0.445,1.273-0.91,1.897    c-0.466,0.625-1.27,1.4-2.414,2.327c-1.49,1.215-2.606,2.238-3.348,3.067C34.629,19.425,34.137,20.137,33.736,20.906    L33.736,20.906z"></path><path d="M62.057,77.019c0.036,0.888,0.178,1.745,0.424,2.57c0.248,0.826,0.787,2.144,1.62,3.953    c0.61,1.328,0.981,2.166,1.114,2.516c0.217,0.57,0.354,1.079,0.407,1.527c0.055,0.448,0.034,0.886-0.06,1.312    c-0.174,0.79-0.582,1.394-1.227,1.811c-0.643,0.418-1.354,0.542-2.128,0.371c-0.782-0.172-1.401-0.599-1.854-1.28    c-0.344-0.508-0.561-1.2-0.65-2.079c-0.412,0.753-0.878,1.291-1.396,1.617c-0.716,0.439-1.461,0.573-2.236,0.403    c-0.769-0.169-1.361-0.577-1.777-1.225c-0.417-0.647-0.545-1.337-0.385-2.069c0.142-0.641,0.444-1.273,0.91-1.897    c0.465-0.625,1.27-1.401,2.413-2.327c1.491-1.217,2.606-2.238,3.349-3.067C61.164,78.499,61.656,77.787,62.057,77.019    L62.057,77.019z"></path></g></g></svg>
