<svg height='300px' width='300px'  fill="#000000" xmlns="http://www.w3.org/2000/svg" xmlns:xlink="http://www.w3.org/1999/xlink" version="1.1" x="0px" y="0px" viewBox="0 0 100 100" enable-background="new 0 0 100 100" xml:space="preserve"><path d="M68.48,50.8c4.939-4.762,8.02-11.438,8.02-18.825c0-14.429-11.739-26.167-26.167-26.167S24.166,17.545,24.166,31.974  c0,7.387,3.081,14.064,8.021,18.826c-10.261,5.136-17.328,15.743-17.328,27.978v13.837c0,1.381,1.119,2.5,2.5,2.5h65.949  c1.38,0,2.5-1.119,2.499-2.5V78.778C85.807,66.543,78.741,55.937,68.48,50.8z M29.166,31.975c0-11.672,9.496-21.167,21.167-21.167  c11.672,0,21.167,9.494,21.167,21.166s-9.496,21.168-21.167,21.168S29.166,43.647,29.166,31.975z M80.807,90.115H19.859V78.778  c0-11.153,6.993-20.685,16.817-24.494c3.978,2.444,8.655,3.857,13.657,3.857c5.002,0,9.679-1.412,13.657-3.857  c9.823,3.808,16.817,13.341,16.817,24.494V90.115z"></path></svg>