<svg height='300px' width='300px'  fill="#000000" xmlns="http://www.w3.org/2000/svg" xmlns:xlink="http://www.w3.org/1999/xlink" viewBox="0 0 100 100" version="1.1" x="0px" y="0px"><title>joker</title><desc>Created with Sketch.</desc><g stroke="none" stroke-width="1" fill="none" fill-rule="evenodd"><path d="M73,75 L27,75 C28.334473,66.7652332 29.5427115,60.667363 30.6247156,56.7063894 C31.9061552,51 31.3922038,46.6569945 21.9879672,45.349612 C21.8085015,47.9479201 19.6438952,50 17,50 C14.2385763,50 12,47.7614237 12,45 C12,42.2385763 14.2385763,40 17,40 C18.7281752,40 20.2515719,40.8767612 21.1496447,42.2097384 C28.1476035,36.7762174 33.3215825,38.0874273 37.1951665,42.1189024 C47.3955528,26.8682556 56.0829077,22.0852416 63.924805,27.1022867 C64.8312199,25.8298437 66.3186998,25 68,25 C70.7614237,25 73,27.2385763 73,30 C73,32.7614237 70.7614237,35 68,35 C65.261453,35 63.0371265,32.7983607 63.0004599,30.0685218 C54.6375658,30.1668531 53.9311431,35.8065542 60.8811918,46.987625 C64.8457207,45.3153165 70.1041574,46.1599616 76.6565065,49.5215674 C77.5179185,48.0151783 79.1404054,47 81,47 C83.7614237,47 86,49.2385763 86,52 C86,54.7614237 83.7614237,57 81,57 C78.2385763,57 76,54.7614237 76,52 C76,51.9207646 76.0018431,51.8419597 76.0054887,51.7636257 C67.9516996,52.8462136 66.94987,60.5916717 73,75 Z" fill="#000000" fill-rule="nonzero"></path></g></svg>