<svg height='300px' width='300px'  fill="#000000" xmlns="http://www.w3.org/2000/svg" data-name="Layer 1" viewBox="0 0 100 100" x="0px" y="0px"><title>Artboard 2</title><path d="M20.74,31.18A29.68,29.68,0,0,1,48,4.85a29.22,29.22,0,0,1,22.17,7.85,29.46,29.46,0,0,1-2.87,45.43v4.78a2.5,2.5,0,0,1-5,0V57.78a4.4,4.4,0,0,1,1.88-3.57,24.46,24.46,0,0,0,2.58-37.86A24.24,24.24,0,0,0,48.31,9.83,24.46,24.46,0,0,0,35.92,54.2a4.42,4.42,0,0,1,1.9,3.58v5.12a2.5,2.5,0,0,1-5,0V58.13A29.6,29.6,0,0,1,20.74,31.18ZM35.32,70.09H64.77a2.5,2.5,0,0,1,2.5,2.5v6.57A10,10,0,0,1,61,88.35v1a5.88,5.88,0,0,1-5.87,5.87H45a5.88,5.88,0,0,1-5.87-5.87v-1a10,10,0,0,1-6.29-9.19V72.59A2.5,2.5,0,0,1,35.32,70.09Zm2.5,9.07A4.9,4.9,0,0,0,42,84a2.5,2.5,0,0,1,2.13,2.47v2.91a.87.87,0,0,0,.87.87H55.1a.87.87,0,0,0,.87-.87V86.45A2.5,2.5,0,0,1,58.11,84a4.9,4.9,0,0,0,4.16-4.82V75.09H37.82ZM12,36.78a2.5,2.5,0,0,0,0-5H4a2.5,2.5,0,1,0,0,5ZM9.17,14.68l7.47,4.9a2.5,2.5,0,0,0,2.74-4.18l-7.47-4.9a2.5,2.5,0,1,0-2.74,4.18Zm1.37,43.79a2.49,2.49,0,0,0,1.37-.41l7.47-4.9A2.5,2.5,0,1,0,16.64,49l-7.47,4.9a2.5,2.5,0,0,0,1.37,4.59Zm75-24.19a2.5,2.5,0,0,0,2.5,2.5h8a2.5,2.5,0,0,0,0-5H88A2.5,2.5,0,0,0,85.5,34.28ZM82,20a2.49,2.49,0,0,0,1.37-.41l7.47-4.9a2.5,2.5,0,0,0-2.74-4.18l-7.47,4.9A2.5,2.5,0,0,0,82,20Zm6.1,38.07a2.5,2.5,0,0,0,2.74-4.18L83.36,49a2.5,2.5,0,0,0-2.74,4.18ZM50.1,21.4a2.5,2.5,0,0,0-3.22,1.47l-4.46,12a2.5,2.5,0,0,0,2.34,3.37h7l-3.21,8.62a2.5,2.5,0,1,0,4.69,1.74l4.46-12a2.5,2.5,0,0,0-2.34-3.37h-7l3.21-8.62A2.5,2.5,0,0,0,50.1,21.4Z"></path></svg>